<svg xmlns="http://www.w3.org/2000/svg" width="400" height="400" viewBox="0 0 400 400"><g fill="#EEE4CF"><path d="M197.35 131.05 L200 15 L202.65 131.05 Z"></path><path d="M206.37 131.29 L224.15 16.58 L211.63 131.99 Z"></path><path d="M215.29 132.71 L247.88 21.3 L220.4 134.09 Z"></path><path d="M223.94 135.29 L270.8 29.08 L228.83 137.31 Z"></path><path d="M232.18 138.96 L292.5 39.79 L236.77 141.61 Z"></path><path d="M239.87 143.69 L312.62 53.23 L244.07 146.91 Z"></path><path d="M246.88 149.37 L330.81 69.19 L250.63 153.12 Z"></path><path d="M253.09 155.93 L346.77 87.38 L256.31 160.13 Z"></path><path d="M258.39 163.23 L360.21 107.5 L261.04 167.82 Z"></path><path d="M262.69 171.17 L370.92 129.2 L264.71 176.06 Z"></path><path d="M265.91 179.6 L378.7 152.12 L267.29 184.71 Z"></path><path d="M268.01 188.37 L383.42 175.85 L268.71 193.63 Z"></path><path d="M268.95 197.35 L385 200 L268.95 202.65 Z"></path><path d="M268.71 206.37 L383.42 224.15 L268.01 211.63 Z"></path><path d="M267.29 215.29 L378.7 247.88 L265.91 220.4 Z"></path><path d="M264.71 223.94 L370.92 270.8 L262.69 228.83 Z"></path><path d="M261.04 232.18 L360.21 292.5 L258.39 236.77 Z"></path><path d="M256.31 239.87 L346.77 312.62 L253.09 244.07 Z"></path><path d="M250.63 246.88 L330.81 330.81 L246.88 250.63 Z"></path><path d="M244.07 253.09 L312.62 346.77 L239.87 256.31 Z"></path><path d="M236.77 258.39 L292.5 360.21 L232.18 261.04 Z"></path><path d="M228.83 262.69 L270.8 370.92 L223.94 264.71 Z"></path><path d="M220.4 265.91 L247.88 378.7 L215.29 267.29 Z"></path><path d="M211.63 268.01 L224.15 383.42 L206.37 268.71 Z"></path><path d="M202.65 268.95 L200 385 L197.35 268.95 Z"></path><path d="M193.63 268.71 L175.85 383.42 L188.37 268.01 Z"></path><path d="M184.71 267.29 L152.12 378.7 L179.6 265.91 Z"></path><path d="M176.06 264.71 L129.2 370.92 L171.17 262.69 Z"></path><path d="M167.82 261.04 L107.5 360.21 L163.23 258.39 Z"></path><path d="M160.13 256.31 L87.38 346.77 L155.93 253.09 Z"></path><path d="M153.12 250.63 L69.19 330.81 L149.37 246.88 Z"></path><path d="M146.91 244.07 L53.23 312.62 L143.69 239.87 Z"></path><path d="M141.61 236.77 L39.79 292.5 L138.96 232.18 Z"></path><path d="M137.31 228.83 L29.08 270.8 L135.29 223.94 Z"></path><path d="M134.09 220.4 L21.3 247.88 L132.71 215.29 Z"></path><path d="M131.99 211.63 L16.58 224.15 L131.29 206.37 Z"></path><path d="M131.05 202.65 L15 200 L131.05 197.35 Z"></path><path d="M131.29 193.63 L16.58 175.85 L131.99 188.37 Z"></path><path d="M132.71 184.71 L21.3 152.12 L134.09 179.6 Z"></path><path d="M135.29 176.06 L29.08 129.2 L137.31 171.17 Z"></path><path d="M138.96 167.82 L39.79 107.5 L141.61 163.23 Z"></path><path d="M143.69 160.13 L53.23 87.38 L146.91 155.93 Z"></path><path d="M149.37 153.12 L69.19 69.19 L153.12 149.37 Z"></path><path d="M155.93 146.91 L87.38 53.23 L160.13 143.69 Z"></path><path d="M163.23 141.61 L107.5 39.79 L167.82 138.96 Z"></path><path d="M171.17 137.31 L129.2 29.08 L176.06 135.29 Z"></path><path d="M179.6 134.09 L152.12 21.3 L184.71 132.71 Z"></path><path d="M188.37 131.99 L175.85 16.58 L193.63 131.29 Z"></path><circle cx="200" cy="200" r="70"></circle></g></svg>